<svg width="25" height="25" viewBox="0 0 25 25" fill="none" xmlns="http://www.w3.org/2000/svg">
<path d="M22.3301 22.1299H2.33008" stroke="black" stroke-width="1.5" stroke-linecap="round"/>
<path d="M20.3301 22.1299V11.1299" stroke="black" stroke-width="1.5" stroke-linecap="round"/>
<path d="M4.33008 22.1299V11.1299" stroke="black" stroke-width="1.5" stroke-linecap="round"/>
<path d="M16.8579 2.12988H7.80221C6.5994 2.12988 5.99799 2.12988 5.51468 2.42858C5.03138 2.72728 4.76242 3.2652 4.22451 4.34103L2.82089 7.88917C2.4966 8.70893 2.21286 9.67513 2.75875 10.3674C3.12496 10.8318 3.69265 11.1299 4.32999 11.1299C5.43456 11.1299 6.32999 10.2345 6.32999 9.12988C6.32999 10.2345 7.22542 11.1299 8.32999 11.1299C9.43456 11.1299 10.33 10.2345 10.33 9.12988C10.33 10.2345 11.2254 11.1299 12.33 11.1299C13.4346 11.1299 14.33 10.2345 14.33 9.12988C14.33 10.2345 15.2254 11.1299 16.33 11.1299C17.4346 11.1299 18.33 10.2345 18.33 9.12988C18.33 10.2345 19.2254 11.1299 20.33 11.1299C20.9673 11.1299 21.5351 10.8318 21.9013 10.3674C22.4472 9.67513 22.1635 8.70893 21.8392 7.88917L20.4356 4.34103C19.8976 3.2652 19.6287 2.72728 19.1454 2.42858C18.6621 2.12988 18.0607 2.12988 16.8579 2.12988Z" stroke="black" stroke-width="1.5" stroke-linejoin="round"/>
<path d="M9.83008 21.6299V18.6299C9.83008 17.6953 9.83008 17.228 10.031 16.8799C10.1627 16.6519 10.352 16.4625 10.5801 16.3308C10.9282 16.1299 11.3955 16.1299 12.3301 16.1299C13.2647 16.1299 13.732 16.1299 14.0801 16.3308C14.3081 16.4625 14.4975 16.6519 14.6291 16.8799C14.8301 17.228 14.8301 17.6953 14.8301 18.6299V21.6299" stroke="black" stroke-width="1.5" stroke-linecap="round"/>
</svg>
